<?xml version="1.0" encoding="UTF-8"?>
<svg id="Layer_1" data-name="Layer 1" xmlns="http://www.w3.org/2000/svg" xmlns:xlink="http://www.w3.org/1999/xlink" viewBox="0 0 1080 1080">
  <defs>
    <style>
      .cls-1 {
        fill: #fbb03b;
      }

      .cls-1, .cls-2, .cls-3, .cls-4, .cls-5 {
        stroke: #000;
        stroke-miterlimit: 10;
      }

      .cls-1, .cls-2, .cls-4 {
        stroke-width: .25px;
      }

      .cls-2 {
        fill: #fff;
      }

      .cls-3 {
        fill: #af4c29;
      }

      .cls-3, .cls-5 {
        stroke-width: .5px;
      }

      .cls-6 {
        fill: #af4d28;
      }

      .cls-6, .cls-7 {
        stroke-width: 0px;
      }

      .cls-4 {
        fill: #fdbd28;
      }

      .cls-7 {
        fill: #ac4a29;
      }

      .cls-5 {
        fill: url(#radial-gradient);
      }
    </style>
    <radialGradient id="radial-gradient" cx="540" cy="540" fx="540" fy="540" r="379.25" gradientTransform="translate(-186.96 -198.95) scale(1.35 1.37)" gradientUnits="userSpaceOnUse">
      <stop offset=".59" stop-color="#77bfe4"/>
      <stop offset=".67" stop-color="#7cc0e4"/>
      <stop offset=".76" stop-color="#8bc6e5"/>
      <stop offset=".87" stop-color="#a4cee6"/>
      <stop offset=".92" stop-color="#b4d4e7"/>
    </radialGradient>
  </defs>
  <path class="cls-7" d="m642.3,165.33c1.93,0,1.93-3,0-3s-1.93,3,0,3h0Z"/>
  <path class="cls-7" d="m639.55,164.11c1.93,0,1.93-3,0-3s-1.93,3,0,3h0Z"/>
  <path class="cls-7" d="m642.91,164.11c1.93,0,1.93-3,0-3s-1.93,3,0,3h0Z"/>
  <path class="cls-7" d="m646.1,162.47c-1.99-1.57-4.24-2.74-6.71-3.36-.76-.19-1.66.25-1.85,1.05s.23,1.64,1.05,1.85c.54.14,1.08.3,1.6.49.13.05.26.1.39.15.09.04.53.15.12.05.24.06.49.22.71.33.48.24.96.5,1.42.79.24.15.47.3.7.46.11.08.23.16.34.24.06.04.11.08.17.13-.17-.13-.18-.14-.06-.04.32.26.63.44,1.06.44.37,0,.81-.16,1.06-.44.5-.54.66-1.6,0-2.12h0Z"/>
  <path class="cls-7" d="m764.97,60.38c-1.48-4.94-6.39-7.16-11.04-8.17-1.18-.26-2.53-.7-3.75-.47s-2.23,1.47-1.88,2.76c.63,2.35,3.53,1.82,5.31,2.24,2.23.52,4.16,1.91,5.34,3.88.99,1.66,3.58.15,2.59-1.51-1.98-3.31-5.59-5.47-9.46-5.55-.44,0-.45.02-.85-.09-.16-.04-.24-.07-.23-.09-.07.1-.02-.14.02.03.05.22.23.53.18.79-.02.12-.39.37-.39.46s-.2-.12.03.02c.12.07.26.02.33.03.53.09,1.07.21,1.6.32,2.04.43,4.1.95,5.9,2.04,1.56.95,2.88,2.33,3.42,4.11s3.45,1.06,2.89-.8h0Z"/>
  <circle class="cls-3" cx="540" cy="540" r="539.5"/>
  <ellipse class="cls-5" cx="540" cy="540" rx="510.56" ry="518.97"/>
  <g>
    <g>
      <path class="cls-4" d="m429.09,688.27c14.23-2.95,34.41-22,34.41-22,15.54-14.66,13.66-9.75,40.15-33.73,1.78-1.61,9.34-8.46,15.77-14.67,23.46-22.63,38.6-43.1,53.05-61.6,7.12-9.11,25.53-32.41,48.75-58.66,26.06-29.46,79.56-86.81,84.6-89.46.32-.17,2.22-1.04,2.87-2.93,0,0,.45-1.3,0-2.93-3-10.98-21.51-27.86-21.51-27.86-11.17-10.19-9.47-10.67-18.64-19.07-29.5-27.02-65.96-41.06-65.96-41.06-66.64-25.67-128.28-4.79-137.65-1.47-17.09,6.07-48.34,19.8-77.43,49.86-39.43,40.75-51,86.83-54.49,104.13-16.02,79.4,18.81,144.12,35.85,167.19,21.76,29.46,53.05,51.33,53.05,51.33.81,1.03,2.23,2.46,4.3,2.93,0,0,1.37.31,2.87,0Z"/>
      <path class="cls-1" d="m390.37,685.33c-9.02-7.26-21.11-18.27-32.98-33.73-21.02-27.39-29.46-53.27-34.41-68.93-7.05-22.27-20.14-65.45-10.04-120.26,2.35-12.74,10.56-51.07,38.71-90.93,15-21.23,44.06-54.78,91.77-76.26,13.7-6.17,51.42-21.47,101.8-19.07,23.71,1.13,70.59,7.09,117.58,39.6,35,24.22,55.47,53.07,65.96,70.39,7.52-7.69,16.09-15.63,25.81-23.46,3.87-3.12,7.7-6.05,11.47-8.8,0,0,11.47-5.87,18.64,1.47s4.3,4.4,22.94,20.53l96.07-87.99s-143.3,55.03-173.5,44l48.75-73.33-71.69,48.4-1.43-35.2s32.98-126.12,45.88-139.32h-3.45s-85.45,109.99-121.29,121.72l-11.47,4.4,7.17-93.86-35.85,80.66s-25.9-40.08-31.54-71.86c-2.87-16.13-18.64-105.61-18.64-105.61,0,0-34.41,164.27-50.18,177.47l-39.43-79.93,7.17,90.93s-20.07-1.47-47.32-27.86c-27.24-26.4-49.47-53.89-49.47-53.89l-38-45.83,32.98,99.73s21.51,63.06,11.47,80.66l-71.69-52.8c-5.74,0,45.88,70.39,45.88,70.39v4.4c0,2.93-31.54,1.47-31.54,1.47,0,0-121.88-33.73-140.52-46.93l7.17,8.8,83.16,74.79s31.54,35.2,32.98,54.26l-86.03-5.87,74.56,36.66s5.74,1.47-12.9,10.27c-11.64,5.5-61.66,26.4-113.27,33.73l-44.45,8.8,96.07,19.07s61.69,14.64,73.13,30.8c3.78,5.34-2.78,5.13-8.6,7.33-6.02,2.27-65.96,30.8-65.96,30.8l87.46-5.87s-6.37,27.04-32.98,54.26c-5.74,5.87-11.47,11.73-11.47,11.73l-77.43,68.93,31.54-8.8,74.56-65.99s34.41-29.33,73.13,8.8l18.64,14.67,17.21,11.73,7.89.73Z"/>
    </g>
    <path class="cls-6" d="m113.49,829.42l126.33-127.96,31.54-26.4s29.39-28.6,62.37-5.13l47.32,33.73s35.85,29.33,80.3-14.67l75.28-62.66s138.02-174.56,197.67-219.13c2.5-1.87,28.52-31.73,39.63-30.59,0,0,11.47-8.8,43.02,30.8,31.54,39.6,71.69,107.06,71.69,107.06,0,0,45.5,77.73,56.45,93.13,10.95,15.4,53.05,66.13,66.87,78.46l11.47,4.4,20.07,19.07s-164.05,379.1-488.94,362.24c-324.89-16.87-441.06-242.35-441.06-242.35Z"/>
    <polygon class="cls-2" points="368.09 895.25 317.95 868.61 268.14 895.9 277.33 838.72 236.64 798.53 292.47 789.83 317.13 737.7 342.44 789.51 398.37 797.48 358.19 838.19 368.09 895.25"/>
  </g>
</svg>